# xmcd
#
# Track frame offsets:
#	150
#	16547
#	32901
#	46504
#	60137
#	78834
#	97506
#	117610
#	139936
#	160175
#	178619
#	200653
#
# Disc length: 2901 seconds
#
# Revision: 1
# Processed by: cddbd v1.5.2PL0 Copyright (c) Steve Scherf et al.
# Submitted via: audiograbber 1.83.01
#
DISCID=860b530c
DTITLE=Luke Dickens - After The Rain
DYEAR=2019
DGENRE=Country
TTITLE0=Bad Seed
TTITLE1=Nothin' On You
TTITLE2=One Small Town
TTITLE3=Let It Burn
TTITLE4=What If (Feat. Nyssa Ray)
TTITLE5=Hung Up On You
TTITLE6=The Big Bad Wolf
TTITLE7=Radio Man
TTITLE8=After The Rain
TTITLE9=Forever Road
TTITLE10=Snake Woman
TTITLE11=The Right Guy
EXTD=
EXTT0=
EXTT1=
EXTT2=
EXTT3=
EXTT4=
EXTT5=
EXTT6=
EXTT7=
EXTT8=
EXTT9=
EXTT10=
EXTT11=
PLAYORDER=
